<svg width="54" height="54" viewBox="0 0 54 54" fill="none" xmlns="http://www.w3.org/2000/svg">
<path fill-rule="evenodd" clip-rule="evenodd" d="M47.7158 43.1094C50.9987 38.6124 52.9416 33.0376 52.9416 27C52.9416 12.0883 41.0902 0 26.4708 0C11.8514 0 0 12.0883 0 27C0 41.9116 11.8514 53.9999 26.4708 53.9999C26.6476 53.9999 26.824 53.9982 27 53.9947C27.078 53.9983 27.1565 54.0001 27.2354 54.0001H49.0003C51.7617 54.0001 54.0003 51.7615 54.0003 49.0001V48.1094C54.0003 45.3479 51.7617 43.1094 49.0003 43.1094H47.7158Z" fill="#012970"/>
<path d="M18.9554 25.3313C18.2353 24.244 16.2549 22.3414 14.0944 23.4286C11.934 24.5159 11.1238 26.3909 11.3939 27.5058C12.7442 31.2205 16.1469 38.4869 18.9554 37.8346C21.764 37.1822 23.7264 34.1198 24.3566 32.6702L27.3272 37.291C27.8673 38.4688 29.7577 40.2265 32.9984 37.8346C36.239 35.4427 40.6499 26.1467 42.4503 21.7977C43.1705 20.4387 43.9086 17.2857 41.1 15.5461C38.2915 13.8065 35.7889 16.4521 34.8888 17.9924C33.5385 20.8917 30.7839 26.5816 30.5679 26.1467C30.2978 25.6031 27.5972 20.7105 25.9769 20.1669C24.3566 19.6232 21.9261 19.8951 18.9554 25.3313Z" fill="#FFB384"/>
</svg>
